<?xml version="1.0" encoding="UTF-8" standalone="no"?>
<!DOCTYPE svg PUBLIC "-//W3C//DTD SVG 1.1//EN"
 "http://www.w3.org/Graphics/SVG/1.1/DTD/svg11.dtd">
<!-- Generated by graphviz version 2.40.1 (20161225.0304)
 -->
<!-- Title: models_diagram Pages: 1 -->
<svg width="312pt" height="270pt"
 viewBox="0.00 0.00 312.00 270.00" xmlns="http://www.w3.org/2000/svg" xmlns:xlink="http://www.w3.org/1999/xlink">
<g id="graph0" class="graph" transform="scale(1 1) rotate(0) translate(36 234)">
<title>models_diagram</title>
<polygon fill="#ffffff" stroke="transparent" points="-36,36 -36,-234 276,-234 276,36 -36,36"/>
<!-- Token -->
<g id="node1" class="node">
<title>Token</title>
<polygon fill="#add8e6" stroke="transparent" points="160,-120 160,-142 240,-142 240,-120 160,-120"/>
<polygon fill="none" stroke="#000000" points="160,-120 160,-142 240,-142 240,-120 160,-120"/>
<text text-anchor="start" x="187.226" y="-129" font-family="Times,serif" font-weight="bold" font-size="10.00" fill="#000000">Token</text>
<polygon fill="none" stroke="#000000" points="160,-98 160,-120 240,-120 240,-98 160,-98"/>
<text text-anchor="start" x="165" y="-107" font-family="Times,serif" text-decoration="underline" font-size="10.00" fill="#000000">id</text>
<text text-anchor="start" x="172.779" y="-107" font-family="Times,serif" font-size="10.00" fill="#000000">: UUID</text>
<polygon fill="none" stroke="#000000" points="160,-76 160,-98 240,-98 240,-76 160,-76"/>
<text text-anchor="start" x="165" y="-84" font-family="Times,serif" font-size="10.00" fill="#000000">userId: UUID</text>
<polygon fill="none" stroke="#000000" points="160,-54 160,-76 240,-76 240,-54 160,-54"/>
<text text-anchor="start" x="165" y="-62" font-family="Times,serif" font-size="10.00" fill="#000000">token: STRING</text>
<polygon fill="none" stroke="#000000" points="160,-32 160,-54 240,-54 240,-32 160,-32"/>
<text text-anchor="start" x="164.596" y="-40" font-family="Times,serif" font-size="10.00" fill="#000000">expiresAt: DATE</text>
</g>
<!-- User -->
<g id="node2" class="node">
<title>User</title>
<polygon fill="#add8e6" stroke="transparent" points="0,-176 0,-198 134,-198 134,-176 0,-176"/>
<polygon fill="none" stroke="#000000" points="0,-176 0,-198 134,-198 134,-176 0,-176"/>
<text text-anchor="start" x="57.562" y="-185" font-family="Times,serif" font-weight="bold" font-size="10.00" fill="#000000">User</text>
<polygon fill="none" stroke="#000000" points="0,-154 0,-176 134,-176 134,-154 0,-154"/>
<text text-anchor="start" x="5" y="-163" font-family="Times,serif" text-decoration="underline" font-size="10.00" fill="#000000">id</text>
<text text-anchor="start" x="12.779" y="-163" font-family="Times,serif" font-size="10.00" fill="#000000">: UUID</text>
<polygon fill="none" stroke="#000000" points="0,-132 0,-154 134,-154 134,-132 0,-132"/>
<text text-anchor="start" x="5" y="-140" font-family="Times,serif" font-size="10.00" fill="#000000">email: STRING</text>
<polygon fill="none" stroke="#000000" points="0,-110 0,-132 134,-132 134,-110 0,-110"/>
<text text-anchor="start" x="5" y="-118" font-family="Times,serif" font-size="10.00" fill="#000000">encryptionHash: STRING</text>
<polygon fill="none" stroke="#000000" points="0,-88 0,-110 134,-110 134,-88 0,-88"/>
<text text-anchor="start" x="5" y="-96" font-family="Times,serif" font-size="10.00" fill="#000000">encryptedPassword: STRING</text>
<polygon fill="none" stroke="#000000" points="0,-66 0,-88 134,-88 134,-66 0,-66"/>
<text text-anchor="start" x="4.935" y="-74" font-family="Times,serif" font-size="10.00" fill="#000000">resetPasswordToken: STRING</text>
<polygon fill="none" stroke="#000000" points="0,-44 0,-66 134,-66 134,-44 0,-44"/>
<text text-anchor="start" x="5" y="-52" font-family="Times,serif" font-size="10.00" fill="#000000">password: VIRTUAL</text>
<polygon fill="none" stroke="#000000" points="0,-22 0,-44 134,-44 134,-22 0,-22"/>
<text text-anchor="start" x="5" y="-30" font-family="Times,serif" font-size="10.00" fill="#000000">createdAt: DATE</text>
<polygon fill="none" stroke="#000000" points="0,0 0,-22 134,-22 134,0 0,0"/>
<text text-anchor="start" x="5" y="-8" font-family="Times,serif" font-size="10.00" fill="#000000">updatedAt: DATE</text>
</g>
</g>
</svg>
